Coordinates
version=1
nRows=17
nColumns=34
inDegrees=yes

Units are S.I. units (second, meters, Newtons, ...)
If the header above contains a line with 'inDegrees', this indicates whether rotational values are in degrees (yes) or radians (no).

endheader
time	pelvis_tilt	pelvis_list	pelvis_rotation	pelvis_tx	pelvis_ty	pelvis_tz	hip_flexion_r	hip_adduction_r	hip_rotation_r	knee_angle_r	ankle_angle_r	subtalar_angle_r	mtp_angle_r	hip_flexion_l	hip_adduction_l	hip_rotation_l	knee_angle_l	ankle_angle_l	subtalar_angle_l	mtp_angle_l	lumbar_extension	lumbar_bending	lumbar_rotation	arm_flex_r	arm_add_r	arm_rot_r	elbow_flex_r	pro_sup_r	arm_flex_l	arm_add_l	arm_rot_l	elbow_flex_l	pro_sup_l
      1.88333330	    -13.67788974	      0.17530796	     -4.08570222	      1.59876677	      0.78521911	     -0.06344442	     35.48299524	     -7.42771213	     -4.87323905	     42.71964704	     19.02595223	    -14.35779886	      0.00000000	     33.99857500	     -8.56904653	     -5.50420464	     44.00705710	     21.02111972	     -9.90639167	      0.00000000	    -10.34729939	      4.51947850	      0.59326971	     21.91181358	     -7.45196749	     27.65743395	     92.77033858	     85.59366421	     22.31836391	     -2.76603182	     25.09554720	     83.00398184	     84.92690223
      1.90000000	    -13.34285798	      0.13103423	     -4.16639576	      1.60156030	      0.77830950	     -0.06318419	     36.95633135	     -7.98019255	     -4.79173330	     46.55212047	     20.78320125	    -13.38118699	      0.00000000	     35.69628154	     -9.00069953	     -5.43514234	     48.52751758	     23.10326882	     -9.42938597	      0.00000000	    -11.00686129	      4.59297140	      0.74116075	     22.56974796	     -7.43351031	     27.44533682	     95.45558782	     85.62225070	     22.82043311	     -2.25866067	     24.32372759	     86.46732802	     84.78367839
      1.91666670	    -12.78130782	      0.08310127	     -4.16289769	      1.60622907	      0.77069342	     -0.06348611	     37.90078108	     -8.56670500	     -4.70138556	     50.06305083	     22.46595505	    -12.37501561	      0.00000000	     36.84697233	     -9.39446026	     -5.28802443	     52.57838799	     25.22333365	     -8.71525615	      0.00000000	    -11.65448190	      4.65233859	      0.89275741	     22.89853402	     -7.38942706	     27.82286755	     98.91639358	     85.74942136	     23.46610688	     -1.86775984	     23.31793280	     90.31110361	     84.59537243
      1.93333330	    -12.12869922	      0.06021191	     -4.08691886	      1.61251250	      0.76227661	     -0.06436862	     38.43189473	     -9.23112916	     -4.64231018	     53.26073907	     24.13979857	    -11.41058711	      0.00000000	     37.56351798	     -9.73467295	     -5.13250705	     56.16621118	     27.41462190	     -7.83377033	      0.00000000	    -12.01771395	      4.77919422	      1.14747907	     22.96924112	     -7.43520698	     28.98977206	    103.18788453	     85.99158581	     24.41495844	     -1.64405048	     22.46856648	     94.70058852	     84.43178698
      1.95000000	    -11.37161081	      0.05910218	     -3.93907239	      1.61920752	      0.75469933	     -0.06553929	     38.52049082	     -9.95032518	     -4.63992525	     56.10893577	     25.75623192	    -10.37479653	      0.00000000	     37.81705087	     -9.98787784	     -4.95943559	     59.23786743	     29.49762003	     -6.77326629	      0.00000000	    -12.18121983	      4.99135221	      1.50027835	     23.22963830	     -7.51279960	     30.59952882	    108.06789605	     86.36340359	     25.92378107	     -1.59689196	     21.85966959	     99.58251500	     84.32995705
      1.96666670	    -10.58517275	      0.11288698	     -3.75266150	      1.62588886	      0.74834928	     -0.06627738	     38.26125549	    -10.70065461	     -4.66157524	     58.56555239	     27.32991828	     -9.35042282	      0.00000000	     37.64653849	    -10.11831173	     -4.78624061	     61.72270755	     31.38308808	     -5.60530874	      0.00000000	    -11.97936860	      5.19041917	      1.78137344	     23.93132921	     -7.59338212	     32.17783273	    113.00225153	     86.84187981	     27.99707893	     -1.65939528	     21.57870171	    104.54871133	     84.33727741
      1.98333330	     -9.74266175	      0.14825425	     -3.55605169	      1.63234603	      0.74451770	     -0.06630150	     37.56351056	    -11.34329025	     -4.75290613	     60.46010879	     28.76108769	     -8.34803115	      0.00000000	     37.02771019	    -10.25023527	     -4.68926933	     63.54102358	     32.86900567	     -4.44183523	      0.00000000	    -11.61282034	      5.32257307	      1.93685750	     25.17006831	     -7.44723395	     33.21060267	    117.35492513	     87.46974804	     30.50614454	     -1.67676827	     21.57702438	    109.36436418	     84.48761299
      2.00000000	     -8.93875333	      0.18432295	     -3.35557911	      1.63897218	      0.74297937	     -0.06611356	     36.59909425	    -11.86150121	     -4.89078224	     61.86463555	     29.97746877	     -7.52535821	      0.00000000	     36.03691832	    -10.33133450	     -4.61055899	     64.60387921	     33.95036052	     -3.36648860	      0.00000000	    -10.94271991	      5.30796501	      1.82509148	     26.89852731	     -7.03170435	     33.19554260	    120.53559487	     88.24739059	     33.08790606	     -1.61156293	     21.78917120	    113.38575265	     84.79954076
      2.01666670	     -8.31361710	      0.24666747	     -3.05941230	      1.64572911	      0.74340390	     -0.06622772	     35.50544285	    -12.35708966	     -5.21822522	     62.74163968	     30.88349919	     -7.06746941	      0.00000000	     34.91928616	    -10.27388915	     -4.50989967	     64.99781410	     34.77340251	     -2.50386824	      0.00000000	     -9.80284454	      5.22336973	      1.54120851	     28.75688410	     -6.37311743	     31.78517073	    122.16572340	     88.86774430	     35.56581736	     -1.60384054	     22.02374274	    116.12583577	     85.14671155
      2.03333330	     -7.81124155	      0.25990669	     -2.74183417	      1.65220080	      0.74628498	     -0.06612052	     34.18560431	    -12.63035085	     -5.63190886	     62.90616102	     31.44771982	     -6.73257623	      0.00000000	     33.62652713	    -10.21741214	     -4.43645119	     64.69095452	     35.01996518	     -1.84555044	      0.00000000	     -8.52872749	      5.12354095	      1.40863013	     30.55852458	     -5.68219514	     29.48592641	    122.62287850	     89.48099622	     38.23986771	     -1.68931662	     22.13728320	    117.76793211	     85.55342283
      2.05000000	     -7.31811151	      0.36195264	     -2.31123473	      1.65870681	      0.75142236	     -0.06580611	     32.48993343	    -12.93061492	     -6.22407156	     62.28688737	     31.69713950	     -6.35919782	      0.00000000	     32.02541515	    -10.02156369	     -4.50336042	     63.60883758	     34.70067955	     -1.22851844	      0.00000000	     -7.39657522	      4.50030602	      2.62488302	     31.26957913	     -5.93035910	     25.51733245	    124.47968910	     94.83262717	     41.93679747	     -1.18849594	     23.41305934	    117.03180009	     88.77815482
      2.06666670	     -7.25722859	      0.33115584	     -1.78521913	      1.66555275	      0.75793766	     -0.06573811	     30.84881514	    -12.94306923	     -6.97174493	     60.82074771	     31.46661131	     -6.24273651	      0.00000000	     30.73602655	     -9.91590201	     -4.52476764	     62.00013415	     34.05980212	     -0.77362117	      0.00000000	     -5.76163916	      4.41445044	      2.31414850	     33.10743103	     -4.93787977	     23.50650554	    124.32228843	     95.26886531	     44.48590645	     -1.77179534	     23.30208150	    117.72985870	     89.13919764
      2.08333330	     -7.18758641	      0.35416333	     -1.11911809	      1.67214583	      0.76677870	     -0.06621402	     28.81921987	    -12.97239170	     -7.87264506	     58.52777019	     30.93179786	     -6.01680028	      0.00000000	     29.17504625	     -9.60147282	     -4.51391985	     59.60530774	     33.01110408	     -0.36580346	      0.00000000	     -4.36343031	      4.22794609	      2.29954121	     34.85618362	     -4.21162684	     22.01503687	    124.88037458	     95.76240098	     47.45058977	     -2.16338033	     23.68991964	    117.95075251	     89.57247006
      2.10000000	     -7.02575775	      0.48820441	     -0.63972251	      1.67848374	      0.77749835	     -0.06635185	     26.51462699	    -12.90728575	     -8.61547597	     55.62849826	     30.21827061	     -5.53281131	      0.00000000	     27.16216233	     -9.30850485	     -4.94773697	     56.52028452	     31.68517073	      0.10852858	      0.00000000	     -3.41289973	      3.40279045	      3.65513175	     36.03948868	     -4.50215727	     19.59900464	    126.98633651	     98.10958331	     51.57566306	     -1.13459431	     25.34198622	    116.95227124	     91.37887733
      2.11666670	     -7.17916695	      0.39719796	      0.18524283	      1.68488047	      0.78822014	     -0.06704950	     24.23488394	    -12.70980921	     -9.92117707	     52.28623197	     28.85792394	     -5.51465667	      0.00000000	     25.50596613	     -9.01160718	     -4.88360718	     53.09498842	     30.09622008	      0.29563325	      0.00000000	     -1.97118561	      3.26918833	      3.53481454	     38.04572097	     -3.92076687	     18.38730725	    127.17628840	     98.63361050	     55.10931488	     -1.04032678	     25.90444312	    116.86135671	     91.82663657
      2.13333330	     -7.13323918	      0.53894393	      0.74851768	      1.69120285	      0.79919679	     -0.06722315	     21.93335142	    -12.66411555	    -11.03196503	     48.98833525	     27.29340513	     -5.06944627	      0.00000000	     23.21899553	     -8.64955790	     -5.41835801	     48.99050993	     28.22762721	      1.07344440	      0.00000000	     -0.91262150	      2.54277273	      4.75487772	     39.87138907	     -4.30807046	     16.12245989	    128.55228651	    100.18650365	     59.52539997	      0.30579137	     27.24881900	    115.50470136	     93.07507551
      2.15000000	     -7.20825577	      0.56306483	      1.52127540	      1.69704537	      0.81031254	     -0.06731520	     19.72331982	    -12.50617235	    -12.46047158	     45.52473114	     25.11434282	     -4.80754391	      0.00000000	     21.04381434	     -8.26748452	     -5.65503518	     44.59804967	     26.03384419	      1.83124016	      0.00000000	      0.57495803	      2.06843921	      5.20873771	     42.33533122	     -4.43613245	     14.12684677	    128.43985939	    101.03795911	     63.76956100	      1.00606707	     27.98730738	    114.09669214	     93.92742845
